<svg xmlns="http://www.w3.org/2000/svg" viewBox="0 0 800 520" role="img" aria-label="איור יישובים ומפה">
  <defs>
    <linearGradient id="bg" x1="0" x2="0" y1="0" y2="1">
      <stop offset="0" stop-color="#f8fbff"/>
      <stop offset="1" stop-color="#eaf2ff"/>
    </linearGradient>
    <radialGradient id="spot" cx="55%" cy="40%" r="60%">
      <stop offset="0" stop-color="#93c5fd" stop-opacity=".55"/>
      <stop offset="1" stop-color="#93c5fd" stop-opacity="0"/>
    </radialGradient>
  </defs>
  <rect width="800" height="520" rx="28" fill="url(#bg)"/>
  <circle cx="450" cy="220" r="220" fill="url(#spot)"/>

  <!-- map shape -->
  <path d="M185 160l130-42 145 48 155-54v305l-155 54-145-48-130 42z" fill="#ffffff" opacity=".94" stroke="#1e3a8a" stroke-opacity=".14" stroke-width="3"/>
  <path d="M315 118v353" stroke="#1e3a8a" stroke-opacity=".12" stroke-width="3"/>
  <path d="M460 166v353" stroke="#1e3a8a" stroke-opacity=".12" stroke-width="3"/>

  <!-- pins -->
  <g>
    <path d="M330 250c0-32 26-58 58-58s58 26 58 58c0 46-58 106-58 106s-58-60-58-106z" fill="#60a5fa" opacity=".55"/>
    <circle cx="388" cy="250" r="18" fill="#ffffff" opacity=".9"/>

    <path d="M520 290c0-26 21-47 47-47s47 21 47 47c0 38-47 88-47 88s-47-50-47-88z" fill="#1d4ed8" opacity=".22"/>
    <circle cx="567" cy="290" r="14" fill="#ffffff" opacity=".9"/>

    <path d="M235 310c0-22 18-40 40-40s40 18 40 40c0 32-40 74-40 74s-40-42-40-74z" fill="#93c5fd" opacity=".42"/>
    <circle cx="275" cy="310" r="12" fill="#ffffff" opacity=".9"/>
  </g>

  <rect x="18" y="18" width="764" height="484" rx="22" fill="none" stroke="#1e3a8a" stroke-opacity=".10"/>
</svg>
