<svg xmlns="http://www.w3.org/2000/svg" viewBox="0 0 800 520" role="img" aria-label="איור אנשים">
  <defs>
    <linearGradient id="bg" x1="0" x2="1" y1="0" y2="1">
      <stop offset="0" stop-color="#f8fbff"/>
      <stop offset="1" stop-color="#eaf2ff"/>
    </linearGradient>
  </defs>
  <rect width="800" height="520" rx="28" fill="url(#bg)"/>

  <!-- cards -->
  <g fill="#ffffff" opacity=".95" stroke="#1e3a8a" stroke-opacity=".14">
    <rect x="150" y="150" width="210" height="260" rx="22"/>
    <rect x="295" y="120" width="230" height="300" rx="22"/>
    <rect x="470" y="160" width="190" height="250" rx="22"/>
  </g>

  <!-- avatars -->
  <g fill="#93c5fd" opacity=".55">
    <circle cx="255" cy="230" r="38"/>
    <circle cx="410" cy="220" r="44"/>
    <circle cx="565" cy="240" r="34"/>
  </g>
  <g fill="#1d4ed8" opacity=".16">
    <path d="M205 330c20-40 86-40 100 0v18H205z"/>
    <path d="M350 340c25-52 110-52 130 0v20H350z"/>
    <path d="M525 330c18-36 72-36 90 0v16h-90z"/>
  </g>

  <!-- text lines -->
  <g stroke="#1d4ed8" stroke-opacity=".18" stroke-width="8" stroke-linecap="round">
    <path d="M190 280h130"/>
    <path d="M340 285h150"/>
    <path d="M500 285h120"/>
    <path d="M190 304h90"/>
    <path d="M340 312h110"/>
    <path d="M500 308h80"/>
  </g>

  <rect x="18" y="18" width="764" height="484" rx="22" fill="none" stroke="#1e3a8a" stroke-opacity=".10"/>
</svg>
