<svg xmlns="http://www.w3.org/2000/svg" width="800" height="900" viewBox="0 0 800 900" role="img" aria-label="כלנית לזיכרון">
  <defs>
    <linearGradient id="bg" x1="0" y1="0" x2="0" y2="1">
      <stop offset="0" stop-color="#fcf9f2"/>
      <stop offset="1" stop-color="#f4ede1"/>
    </linearGradient>
    <radialGradient id="petal" cx="50%" cy="42%" r="58%">
      <stop offset="0" stop-color="#d96b6b"/>
      <stop offset="1" stop-color="#8b2626"/>
    </radialGradient>
    <radialGradient id="leaf" cx="50%" cy="50%" r="60%">
      <stop offset="0" stop-color="#93a06f"/>
      <stop offset="1" stop-color="#6b734d"/>
    </radialGradient>
  </defs>
  <rect width="800" height="900" rx="42" fill="url(#bg)"/>
  <ellipse cx="400" cy="755" rx="170" ry="26" fill="#8b2626" opacity="0.08"/>
  <g transform="translate(400 380)">
    <ellipse rx="74" ry="158" fill="url(#petal)" transform="rotate(0) translate(0 -92)"/>
    <ellipse rx="74" ry="158" fill="url(#petal)" transform="rotate(60) translate(0 -92)"/>
    <ellipse rx="74" ry="158" fill="url(#petal)" transform="rotate(120) translate(0 -92)"/>
    <ellipse rx="74" ry="158" fill="url(#petal)" transform="rotate(180) translate(0 -92)"/>
    <ellipse rx="74" ry="158" fill="url(#petal)" transform="rotate(240) translate(0 -92)"/>
    <ellipse rx="74" ry="158" fill="url(#petal)" transform="rotate(300) translate(0 -92)"/>
    <circle r="86" fill="#1f1b18"/>
    <circle r="24" fill="#f5deb3" opacity="0.95"/>
  </g>
  <path d="M400 520 L400 720" stroke="#6b734d" stroke-width="14" stroke-linecap="round"/>
  <path d="M395 620 C320 590 280 620 255 675" fill="none" stroke="#6b734d" stroke-width="12" stroke-linecap="round"/>
  <path d="M405 650 C475 620 525 650 555 720" fill="none" stroke="#6b734d" stroke-width="12" stroke-linecap="round"/>
  <ellipse cx="245" cy="684" rx="54" ry="28" fill="url(#leaf)" transform="rotate(-22 245 684)"/>
  <ellipse cx="565" cy="728" rx="54" ry="28" fill="url(#leaf)" transform="rotate(28 565 728)"/>
  <text x="50%" y="92%" text-anchor="middle" font-family="Assistant, Arial" font-size="32" fill="#7a332f">תמונה תתווסף בעזרת המשפחה</text>
</svg>